<mxfile host="app.diagrams.net" modified="2022-04-07T17:15:45.412Z" agent="5.0 (Windows NT 10.0; Win64; x64) AppleWebKit/537.36 (KHTML, like Gecko) Chrome/100.0.4896.79 Safari/537.36" etag="IAOVhLPRe-ClbZ9LRdqL" version="17.4.0" type="github" pages="3">
  <diagram id="Cq9TM6R6OytZHF_6PAl0" name="5.2">
    <mxGraphModel dx="768" dy="880" grid="1" gridSize="10" guides="1" tooltips="1" connect="1" arrows="1" fold="1" page="1" pageScale="1" pageWidth="827" pageHeight="1169" math="0" shadow="0">
      <root>
        <mxCell id="0" />
        <mxCell id="1" parent="0" />
        <mxCell id="AF_YFBUdyMzSg5hxNsib-1" value="AS-EX 5.2&lt;br&gt;Grupo 601 (DF, DC, ST, FC)&lt;br&gt;v2022/04/06" style="shape=note2;boundedLbl=1;whiteSpace=wrap;html=1;size=11;verticalAlign=top;align=left;fontSize=9;fillColor=#dae8fc;strokeColor=#6c8ebf;" parent="1" vertex="1">
          <mxGeometry x="40" y="40" width="125" height="50" as="geometry" />
        </mxCell>
        <mxCell id="2-XwObyl92vQP2RpPpNh-1" value="UI" style="shape=folder;fontStyle=1;tabWidth=110;tabHeight=30;tabPosition=left;html=1;boundedLbl=1;labelInHeader=1;container=1;collapsible=0;" vertex="1" parent="1">
          <mxGeometry x="40" y="120" width="720" height="260" as="geometry" />
        </mxCell>
        <mxCell id="2-XwObyl92vQP2RpPpNh-2" value="" style="html=1;strokeColor=none;resizeWidth=1;resizeHeight=1;fillColor=none;part=1;connectable=0;allowArrows=0;deletable=0;" vertex="1" parent="2-XwObyl92vQP2RpPpNh-1">
          <mxGeometry width="719.9999999999999" height="182" relative="1" as="geometry">
            <mxPoint y="30" as="offset" />
          </mxGeometry>
        </mxCell>
        <mxCell id="2-XwObyl92vQP2RpPpNh-5" value="HTML" style="shape=folder;fontStyle=1;tabWidth=110;tabHeight=30;tabPosition=left;html=1;boundedLbl=1;labelInHeader=1;container=1;collapsible=0;recursiveResize=0;" vertex="1" parent="2-XwObyl92vQP2RpPpNh-1">
          <mxGeometry x="10.285714285714285" y="40" width="288" height="100" as="geometry" />
        </mxCell>
        <mxCell id="2-XwObyl92vQP2RpPpNh-6" value="HTML components" style="html=1;" vertex="1" parent="2-XwObyl92vQP2RpPpNh-5">
          <mxGeometry width="110" height="30" relative="1" as="geometry">
            <mxPoint x="20" y="50" as="offset" />
          </mxGeometry>
        </mxCell>
        <mxCell id="2-XwObyl92vQP2RpPpNh-7" value=".html files" style="html=1;" vertex="1" parent="2-XwObyl92vQP2RpPpNh-5">
          <mxGeometry x="154.28571428571428" y="50" width="113.14285714285714" height="30" as="geometry" />
        </mxCell>
        <mxCell id="2-XwObyl92vQP2RpPpNh-8" value="CSS" style="shape=folder;fontStyle=1;tabWidth=110;tabHeight=30;tabPosition=left;html=1;boundedLbl=1;labelInHeader=1;container=1;collapsible=0;recursiveResize=0;" vertex="1" parent="2-XwObyl92vQP2RpPpNh-1">
          <mxGeometry x="10.285714285714285" y="150" width="154.28571428571428" height="100" as="geometry" />
        </mxCell>
        <mxCell id="2-XwObyl92vQP2RpPpNh-9" value=".css files" style="html=1;" vertex="1" parent="2-XwObyl92vQP2RpPpNh-8">
          <mxGeometry width="110" height="30" relative="1" as="geometry">
            <mxPoint x="20" y="50" as="offset" />
          </mxGeometry>
        </mxCell>
        <mxCell id="2-XwObyl92vQP2RpPpNh-11" value="Javascript" style="shape=folder;fontStyle=1;tabWidth=110;tabHeight=30;tabPosition=left;html=1;boundedLbl=1;labelInHeader=1;container=1;collapsible=0;recursiveResize=0;" vertex="1" parent="2-XwObyl92vQP2RpPpNh-1">
          <mxGeometry x="308.57142857142856" y="40" width="401.1428571428571" height="150" as="geometry" />
        </mxCell>
        <mxCell id="2-XwObyl92vQP2RpPpNh-12" value=".js files" style="html=1;" vertex="1" parent="2-XwObyl92vQP2RpPpNh-11">
          <mxGeometry width="110" height="30" relative="1" as="geometry">
            <mxPoint x="20" y="50" as="offset" />
          </mxGeometry>
        </mxCell>
        <mxCell id="2-XwObyl92vQP2RpPpNh-13" value="Google Analytics" style="html=1;" vertex="1" parent="2-XwObyl92vQP2RpPpNh-11">
          <mxGeometry x="149.14285714285714" y="50" width="113.14285714285714" height="30" as="geometry" />
        </mxCell>
        <mxCell id="2-XwObyl92vQP2RpPpNh-14" value="Cookiebot" style="html=1;" vertex="1" parent="2-XwObyl92vQP2RpPpNh-11">
          <mxGeometry x="149.14285714285714" y="100" width="113.14285714285714" height="30" as="geometry" />
        </mxCell>
        <mxCell id="2-XwObyl92vQP2RpPpNh-15" value="Vizury" style="html=1;" vertex="1" parent="2-XwObyl92vQP2RpPpNh-11">
          <mxGeometry x="20.57142857142857" y="100" width="113.14285714285714" height="30" as="geometry" />
        </mxCell>
        <mxCell id="2-XwObyl92vQP2RpPpNh-16" value="richrelevance" style="html=1;" vertex="1" parent="2-XwObyl92vQP2RpPpNh-11">
          <mxGeometry x="277.71428571428567" y="50" width="113.14285714285714" height="30" as="geometry" />
        </mxCell>
        <mxCell id="2-XwObyl92vQP2RpPpNh-18" value="Domain" style="shape=folder;fontStyle=1;tabWidth=110;tabHeight=30;tabPosition=left;html=1;boundedLbl=1;labelInHeader=1;container=1;collapsible=0;recursiveResize=0;" vertex="1" parent="1">
          <mxGeometry x="40" y="400" width="720" height="390" as="geometry" />
        </mxCell>
        <mxCell id="2-XwObyl92vQP2RpPpNh-36" value="Sales" style="shape=folder;fontStyle=1;tabWidth=110;tabHeight=30;tabPosition=left;html=1;boundedLbl=1;labelInHeader=1;container=1;collapsible=0;recursiveResize=0;" vertex="1" parent="2-XwObyl92vQP2RpPpNh-18">
          <mxGeometry x="10" y="40" width="410" height="100" as="geometry" />
        </mxCell>
        <mxCell id="2-XwObyl92vQP2RpPpNh-37" value="Register" style="html=1;" vertex="1" parent="2-XwObyl92vQP2RpPpNh-36">
          <mxGeometry width="110" height="30" relative="1" as="geometry">
            <mxPoint x="20" y="50" as="offset" />
          </mxGeometry>
        </mxCell>
        <mxCell id="2-XwObyl92vQP2RpPpNh-38" value="Shopping Bag" style="html=1;" vertex="1" parent="2-XwObyl92vQP2RpPpNh-36">
          <mxGeometry x="150" y="50.5" width="110" height="30" as="geometry" />
        </mxCell>
        <mxCell id="2-XwObyl92vQP2RpPpNh-39" value="Resellers sales" style="html=1;" vertex="1" parent="2-XwObyl92vQP2RpPpNh-36">
          <mxGeometry x="280" y="50.5" width="110" height="30" as="geometry" />
        </mxCell>
        <mxCell id="2-XwObyl92vQP2RpPpNh-40" value="Payment" style="shape=folder;fontStyle=1;tabWidth=110;tabHeight=30;tabPosition=left;html=1;boundedLbl=1;labelInHeader=1;container=1;collapsible=0;recursiveResize=0;" vertex="1" parent="2-XwObyl92vQP2RpPpNh-18">
          <mxGeometry x="10" y="155.5" width="540" height="100" as="geometry" />
        </mxCell>
        <mxCell id="2-XwObyl92vQP2RpPpNh-41" value="CreditPayment" style="html=1;" vertex="1" parent="2-XwObyl92vQP2RpPpNh-40">
          <mxGeometry width="110" height="30" relative="1" as="geometry">
            <mxPoint x="20" y="50" as="offset" />
          </mxGeometry>
        </mxCell>
        <mxCell id="2-XwObyl92vQP2RpPpNh-42" value="MBWay" style="html=1;" vertex="1" parent="2-XwObyl92vQP2RpPpNh-40">
          <mxGeometry x="150" y="50.5" width="110" height="30" as="geometry" />
        </mxCell>
        <mxCell id="2-XwObyl92vQP2RpPpNh-43" value="Shopping Bag" style="html=1;" vertex="1" parent="2-XwObyl92vQP2RpPpNh-40">
          <mxGeometry x="280" y="50.5" width="110" height="30" as="geometry" />
        </mxCell>
        <mxCell id="2-XwObyl92vQP2RpPpNh-44" value="Resellers payment" style="html=1;" vertex="1" parent="2-XwObyl92vQP2RpPpNh-40">
          <mxGeometry x="410" y="50.5" width="110" height="30" as="geometry" />
        </mxCell>
        <mxCell id="2-XwObyl92vQP2RpPpNh-45" value="Inventory" style="shape=folder;fontStyle=1;tabWidth=110;tabHeight=30;tabPosition=left;html=1;boundedLbl=1;labelInHeader=1;container=1;collapsible=0;recursiveResize=0;" vertex="1" parent="2-XwObyl92vQP2RpPpNh-18">
          <mxGeometry x="430" y="40" width="280" height="100" as="geometry" />
        </mxCell>
        <mxCell id="2-XwObyl92vQP2RpPpNh-46" value="Website&#39;s inventory" style="html=1;" vertex="1" parent="2-XwObyl92vQP2RpPpNh-45">
          <mxGeometry width="110" height="30" relative="1" as="geometry">
            <mxPoint x="20" y="50" as="offset" />
          </mxGeometry>
        </mxCell>
        <mxCell id="2-XwObyl92vQP2RpPpNh-47" value="Resellers inventory" style="html=1;" vertex="1" parent="2-XwObyl92vQP2RpPpNh-45">
          <mxGeometry x="150" y="50.5" width="110" height="30" as="geometry" />
        </mxCell>
        <mxCell id="2-XwObyl92vQP2RpPpNh-48" value="Register" style="shape=folder;fontStyle=1;tabWidth=110;tabHeight=30;tabPosition=left;html=1;boundedLbl=1;labelInHeader=1;container=1;collapsible=0;recursiveResize=0;" vertex="1" parent="2-XwObyl92vQP2RpPpNh-18">
          <mxGeometry x="10" y="270" width="150" height="100" as="geometry" />
        </mxCell>
        <mxCell id="2-XwObyl92vQP2RpPpNh-49" value="User Registering" style="html=1;" vertex="1" parent="2-XwObyl92vQP2RpPpNh-48">
          <mxGeometry width="110" height="30" relative="1" as="geometry">
            <mxPoint x="20" y="50" as="offset" />
          </mxGeometry>
        </mxCell>
        <mxCell id="2-XwObyl92vQP2RpPpNh-51" value="User" style="shape=folder;fontStyle=1;tabWidth=110;tabHeight=30;tabPosition=left;html=1;boundedLbl=1;labelInHeader=1;container=1;collapsible=0;recursiveResize=0;" vertex="1" parent="2-XwObyl92vQP2RpPpNh-18">
          <mxGeometry x="170" y="270" width="150" height="100" as="geometry" />
        </mxCell>
        <mxCell id="2-XwObyl92vQP2RpPpNh-52" value="User&#39;s profile" style="html=1;" vertex="1" parent="2-XwObyl92vQP2RpPpNh-51">
          <mxGeometry width="110" height="30" relative="1" as="geometry">
            <mxPoint x="20" y="50" as="offset" />
          </mxGeometry>
        </mxCell>
        <mxCell id="2-XwObyl92vQP2RpPpNh-53" value="Apoio Cliente" style="shape=folder;fontStyle=1;tabWidth=110;tabHeight=30;tabPosition=left;html=1;boundedLbl=1;labelInHeader=1;container=1;collapsible=0;recursiveResize=0;" vertex="1" parent="2-XwObyl92vQP2RpPpNh-18">
          <mxGeometry x="330" y="270" width="150" height="100" as="geometry" />
        </mxCell>
        <mxCell id="2-XwObyl92vQP2RpPpNh-54" value="Formulario Contacto" style="html=1;" vertex="1" parent="2-XwObyl92vQP2RpPpNh-53">
          <mxGeometry width="110" height="30" relative="1" as="geometry">
            <mxPoint x="20" y="50" as="offset" />
          </mxGeometry>
        </mxCell>
        <mxCell id="2-XwObyl92vQP2RpPpNh-55" value="Foundation" style="shape=folder;fontStyle=1;tabWidth=110;tabHeight=30;tabPosition=left;html=1;boundedLbl=1;labelInHeader=1;container=1;collapsible=0;recursiveResize=0;" vertex="1" parent="1">
          <mxGeometry x="40" y="810" width="720" height="170" as="geometry" />
        </mxCell>
        <mxCell id="2-XwObyl92vQP2RpPpNh-57" value="Framework" style="shape=folder;fontStyle=1;tabWidth=110;tabHeight=30;tabPosition=left;html=1;boundedLbl=1;labelInHeader=1;container=1;collapsible=0;recursiveResize=0;" vertex="1" parent="2-XwObyl92vQP2RpPpNh-55">
          <mxGeometry x="12.43" y="50" width="407.57" height="100" as="geometry" />
        </mxCell>
        <mxCell id="2-XwObyl92vQP2RpPpNh-58" value="Components" style="html=1;" vertex="1" parent="2-XwObyl92vQP2RpPpNh-57">
          <mxGeometry width="110" height="30" relative="1" as="geometry">
            <mxPoint x="20" y="50" as="offset" />
          </mxGeometry>
        </mxCell>
        <mxCell id="2-XwObyl92vQP2RpPpNh-59" value="Build" style="html=1;" vertex="1" parent="2-XwObyl92vQP2RpPpNh-57">
          <mxGeometry x="147.57000000000005" y="50" width="110" height="30" as="geometry" />
        </mxCell>
        <mxCell id="2-XwObyl92vQP2RpPpNh-61" value="Configs" style="html=1;" vertex="1" parent="2-XwObyl92vQP2RpPpNh-57">
          <mxGeometry x="277.57000000000005" y="50" width="110" height="30" as="geometry" />
        </mxCell>
        <mxCell id="2-XwObyl92vQP2RpPpNh-62" value="Database" style="shape=folder;fontStyle=1;tabWidth=110;tabHeight=30;tabPosition=left;html=1;boundedLbl=1;labelInHeader=1;container=1;collapsible=0;recursiveResize=0;" vertex="1" parent="2-XwObyl92vQP2RpPpNh-55">
          <mxGeometry x="430" y="50" width="147.57" height="100" as="geometry" />
        </mxCell>
        <mxCell id="2-XwObyl92vQP2RpPpNh-63" value="Database files" style="html=1;" vertex="1" parent="2-XwObyl92vQP2RpPpNh-62">
          <mxGeometry width="110" height="30" relative="1" as="geometry">
            <mxPoint x="20" y="50" as="offset" />
          </mxGeometry>
        </mxCell>
      </root>
    </mxGraphModel>
  </diagram>
  <diagram id="G5YTMnqNuCgrJsJMYZpy" name="5.3a">
    <mxGraphModel dx="1385" dy="691" grid="1" gridSize="10" guides="1" tooltips="1" connect="1" arrows="1" fold="1" page="1" pageScale="1" pageWidth="827" pageHeight="1169" math="0" shadow="0">
      <root>
        <mxCell id="0" />
        <mxCell id="1" parent="0" />
        <mxCell id="Dbsa_Fb1JdHvtEZcZaYi-17" value="Chat Bot" style="shape=module;align=left;spacingLeft=20;align=center;verticalAlign=top;" parent="1" vertex="1">
          <mxGeometry x="199" y="400" width="521" height="400" as="geometry" />
        </mxCell>
        <mxCell id="UELkaroANvA7ppI7aCa5-1" value="AS-EX 5.3a&lt;br&gt;Grupo 601 (DF, DC, ST, FC)&lt;br&gt;v2022/04/06" style="shape=note2;boundedLbl=1;whiteSpace=wrap;html=1;size=11;verticalAlign=top;align=left;fontSize=9;fillColor=#dae8fc;strokeColor=#6c8ebf;" parent="1" vertex="1">
          <mxGeometry x="40" y="40" width="125" height="50" as="geometry" />
        </mxCell>
        <mxCell id="Dbsa_Fb1JdHvtEZcZaYi-1" value="&lt;p style=&quot;margin: 0px ; margin-top: 6px ; text-align: center&quot;&gt;&lt;b&gt;&amp;lt;&amp;lt;Component&amp;gt;&amp;gt;&lt;/b&gt;&lt;/p&gt;&lt;hr&gt;&lt;b style=&quot;text-align: center&quot;&gt;&amp;nbsp; &amp;nbsp;&lt;/b&gt;&lt;span&gt;Front End Client&lt;br&gt;&lt;/span&gt;" style="align=left;overflow=fill;html=1;dropTarget=0;" parent="1" vertex="1">
          <mxGeometry x="229" y="170" width="180" height="90" as="geometry" />
        </mxCell>
        <mxCell id="Dbsa_Fb1JdHvtEZcZaYi-2" value="" style="shape=component;jettyWidth=8;jettyHeight=4;" parent="Dbsa_Fb1JdHvtEZcZaYi-1" vertex="1">
          <mxGeometry x="1" width="20" height="20" relative="1" as="geometry">
            <mxPoint x="-24" y="4" as="offset" />
          </mxGeometry>
        </mxCell>
        <mxCell id="Dbsa_Fb1JdHvtEZcZaYi-23" style="edgeStyle=orthogonalEdgeStyle;rounded=0;orthogonalLoop=1;jettySize=auto;html=1;exitX=1;exitY=0.5;exitDx=0;exitDy=0;entryX=0;entryY=0.5;entryDx=0;entryDy=0;endArrow=none;endFill=0;" parent="1" source="Dbsa_Fb1JdHvtEZcZaYi-3" target="Dbsa_Fb1JdHvtEZcZaYi-5" edge="1">
          <mxGeometry relative="1" as="geometry" />
        </mxCell>
        <mxCell id="Dbsa_Fb1JdHvtEZcZaYi-24" style="edgeStyle=orthogonalEdgeStyle;rounded=0;orthogonalLoop=1;jettySize=auto;html=1;exitX=0.5;exitY=1;exitDx=0;exitDy=0;endArrow=none;endFill=0;" parent="1" source="Dbsa_Fb1JdHvtEZcZaYi-3" target="Dbsa_Fb1JdHvtEZcZaYi-7" edge="1">
          <mxGeometry relative="1" as="geometry" />
        </mxCell>
        <mxCell id="G4uTPBN9B1bp6mXsDa_s-3" style="edgeStyle=orthogonalEdgeStyle;rounded=0;orthogonalLoop=1;jettySize=auto;html=1;exitX=0.5;exitY=0;exitDx=0;exitDy=0;endArrow=none;endFill=0;" parent="1" source="Dbsa_Fb1JdHvtEZcZaYi-3" target="G4uTPBN9B1bp6mXsDa_s-1" edge="1">
          <mxGeometry relative="1" as="geometry" />
        </mxCell>
        <mxCell id="Dbsa_Fb1JdHvtEZcZaYi-3" value="&lt;div style=&quot;text-align: center&quot;&gt;&lt;b&gt;&amp;lt;&amp;lt;Component&amp;gt;&amp;gt;&lt;/b&gt;&lt;br&gt;&lt;/div&gt;&lt;hr style=&quot;text-align: center&quot;&gt;&lt;span style=&quot;text-align: center&quot;&gt;&amp;nbsp; &amp;nbsp;Conversation Manager&lt;/span&gt;&lt;p style=&quot;margin: 0px ; margin-left: 8px&quot;&gt;&lt;br&gt;&lt;/p&gt;" style="align=left;overflow=fill;html=1;dropTarget=0;" parent="1" vertex="1">
          <mxGeometry x="229" y="450" width="180" height="90" as="geometry" />
        </mxCell>
        <mxCell id="Dbsa_Fb1JdHvtEZcZaYi-4" value="" style="shape=component;jettyWidth=8;jettyHeight=4;" parent="Dbsa_Fb1JdHvtEZcZaYi-3" vertex="1">
          <mxGeometry x="1" width="20" height="20" relative="1" as="geometry">
            <mxPoint x="-24" y="4" as="offset" />
          </mxGeometry>
        </mxCell>
        <mxCell id="TA7NmAq-p_a1P2Is9fuW-11" style="edgeStyle=orthogonalEdgeStyle;rounded=0;orthogonalLoop=1;jettySize=auto;html=1;exitX=0.5;exitY=1;exitDx=0;exitDy=0;endArrow=none;endFill=0;entryX=0;entryY=0.5;entryDx=0;entryDy=0;entryPerimeter=0;" parent="1" source="Dbsa_Fb1JdHvtEZcZaYi-5" target="TA7NmAq-p_a1P2Is9fuW-7" edge="1">
          <mxGeometry relative="1" as="geometry" />
        </mxCell>
        <mxCell id="Dbsa_Fb1JdHvtEZcZaYi-5" value="&lt;div style=&quot;text-align: center&quot;&gt;&lt;b&gt;&amp;lt;&amp;lt;Component&amp;gt;&amp;gt;&lt;/b&gt;&lt;/div&gt;&lt;hr style=&quot;text-align: center&quot;&gt;&lt;p style=&quot;margin: 0px ; margin-left: 8px&quot;&gt;&lt;span style=&quot;text-align: center&quot;&gt;NLU Module&lt;/span&gt;&lt;br&gt;&lt;br&gt;&lt;/p&gt;" style="align=left;overflow=fill;html=1;dropTarget=0;" parent="1" vertex="1">
          <mxGeometry x="520" y="450" width="180" height="90" as="geometry" />
        </mxCell>
        <mxCell id="Dbsa_Fb1JdHvtEZcZaYi-6" value="" style="shape=component;jettyWidth=8;jettyHeight=4;" parent="Dbsa_Fb1JdHvtEZcZaYi-5" vertex="1">
          <mxGeometry x="1" width="20" height="20" relative="1" as="geometry">
            <mxPoint x="-24" y="4" as="offset" />
          </mxGeometry>
        </mxCell>
        <mxCell id="Dbsa_Fb1JdHvtEZcZaYi-22" style="edgeStyle=orthogonalEdgeStyle;rounded=0;orthogonalLoop=1;jettySize=auto;html=1;exitX=1;exitY=0.5;exitDx=0;exitDy=0;entryX=0;entryY=0.5;entryDx=0;entryDy=0;endArrow=none;endFill=0;" parent="1" source="Dbsa_Fb1JdHvtEZcZaYi-7" target="Dbsa_Fb1JdHvtEZcZaYi-9" edge="1">
          <mxGeometry relative="1" as="geometry" />
        </mxCell>
        <mxCell id="Dbsa_Fb1JdHvtEZcZaYi-7" value="&lt;div style=&quot;text-align: center&quot;&gt;&lt;b&gt;&amp;lt;&amp;lt;Component&amp;gt;&amp;gt;&lt;/b&gt;&lt;/div&gt;&lt;hr style=&quot;text-align: center&quot;&gt;&lt;p style=&quot;margin: 0px ; margin-left: 8px&quot;&gt;&lt;span style=&quot;text-align: center&quot;&gt;Dialog Engine&lt;/span&gt;&lt;br&gt;&lt;br&gt;&lt;/p&gt;" style="align=left;overflow=fill;html=1;dropTarget=0;" parent="1" vertex="1">
          <mxGeometry x="229" y="690" width="180" height="90" as="geometry" />
        </mxCell>
        <mxCell id="Dbsa_Fb1JdHvtEZcZaYi-8" value="" style="shape=component;jettyWidth=8;jettyHeight=4;" parent="Dbsa_Fb1JdHvtEZcZaYi-7" vertex="1">
          <mxGeometry x="1" width="20" height="20" relative="1" as="geometry">
            <mxPoint x="-24" y="4" as="offset" />
          </mxGeometry>
        </mxCell>
        <mxCell id="Dbsa_Fb1JdHvtEZcZaYi-20" style="edgeStyle=orthogonalEdgeStyle;rounded=0;orthogonalLoop=1;jettySize=auto;html=1;exitX=0;exitY=0.5;exitDx=0;exitDy=0;entryX=0;entryY=0.5;entryDx=0;entryDy=0;endArrow=none;endFill=0;startArrow=none;exitPerimeter=0;" parent="1" source="TA7NmAq-p_a1P2Is9fuW-1" target="Dbsa_Fb1JdHvtEZcZaYi-11" edge="1">
          <mxGeometry relative="1" as="geometry" />
        </mxCell>
        <mxCell id="Dbsa_Fb1JdHvtEZcZaYi-21" style="edgeStyle=orthogonalEdgeStyle;rounded=0;orthogonalLoop=1;jettySize=auto;html=1;exitX=1;exitY=0.75;exitDx=0;exitDy=0;endArrow=none;endFill=0;entryX=1;entryY=0.5;entryDx=0;entryDy=0;entryPerimeter=0;" parent="1" source="Dbsa_Fb1JdHvtEZcZaYi-9" target="TA7NmAq-p_a1P2Is9fuW-5" edge="1">
          <mxGeometry relative="1" as="geometry">
            <Array as="points">
              <mxPoint x="700" y="760" />
              <mxPoint x="760" y="760" />
              <mxPoint x="760" y="925" />
            </Array>
            <mxPoint x="890" y="925" as="targetPoint" />
          </mxGeometry>
        </mxCell>
        <mxCell id="Dbsa_Fb1JdHvtEZcZaYi-9" value="&lt;div style=&quot;text-align: center&quot;&gt;&lt;b&gt;&amp;lt;&amp;lt;Component&amp;gt;&amp;gt;&lt;/b&gt;&lt;/div&gt;&lt;hr style=&quot;text-align: center&quot;&gt;&lt;span style=&quot;text-align: center&quot;&gt;&amp;nbsp; &amp;nbsp;Action Server&lt;/span&gt;&lt;p style=&quot;margin: 0px ; margin-left: 8px&quot;&gt;&lt;br&gt;&lt;/p&gt;" style="align=left;overflow=fill;html=1;dropTarget=0;" parent="1" vertex="1">
          <mxGeometry x="520" y="690" width="180" height="90" as="geometry" />
        </mxCell>
        <mxCell id="Dbsa_Fb1JdHvtEZcZaYi-10" value="" style="shape=component;jettyWidth=8;jettyHeight=4;" parent="Dbsa_Fb1JdHvtEZcZaYi-9" vertex="1">
          <mxGeometry x="1" width="20" height="20" relative="1" as="geometry">
            <mxPoint x="-24" y="4" as="offset" />
          </mxGeometry>
        </mxCell>
        <mxCell id="Dbsa_Fb1JdHvtEZcZaYi-11" value="&lt;div style=&quot;text-align: center&quot;&gt;&lt;b&gt;&amp;lt;&amp;lt;Component&amp;gt;&amp;gt;&lt;/b&gt;&lt;/div&gt;&lt;hr style=&quot;text-align: center&quot;&gt;&lt;p style=&quot;margin: 0px ; margin-left: 8px&quot;&gt;&lt;span style=&quot;text-align: center&quot;&gt;Idea DB&amp;nbsp;&lt;/span&gt;&lt;br&gt;&lt;br&gt;&lt;/p&gt;" style="align=left;overflow=fill;html=1;dropTarget=0;" parent="1" vertex="1">
          <mxGeometry x="960" y="710" width="180" height="90" as="geometry" />
        </mxCell>
        <mxCell id="Dbsa_Fb1JdHvtEZcZaYi-12" value="" style="shape=component;jettyWidth=8;jettyHeight=4;" parent="Dbsa_Fb1JdHvtEZcZaYi-11" vertex="1">
          <mxGeometry x="1" width="20" height="20" relative="1" as="geometry">
            <mxPoint x="-24" y="4" as="offset" />
          </mxGeometry>
        </mxCell>
        <mxCell id="Dbsa_Fb1JdHvtEZcZaYi-13" value="&lt;div style=&quot;text-align: center&quot;&gt;&lt;b&gt;&amp;lt;&amp;lt;Component&amp;gt;&amp;gt;&lt;/b&gt;&lt;/div&gt;&lt;hr style=&quot;text-align: center&quot;&gt;&lt;p style=&quot;margin: 6px 0px 0px&quot;&gt;&amp;nbsp; &amp;nbsp;External Knowledge&amp;nbsp;&lt;span&gt;Base&amp;nbsp;&lt;/span&gt;&lt;/p&gt;" style="align=left;overflow=fill;html=1;dropTarget=0;" parent="1" vertex="1">
          <mxGeometry x="960" y="880" width="180" height="90" as="geometry" />
        </mxCell>
        <mxCell id="Dbsa_Fb1JdHvtEZcZaYi-14" value="" style="shape=component;jettyWidth=8;jettyHeight=4;" parent="Dbsa_Fb1JdHvtEZcZaYi-13" vertex="1">
          <mxGeometry x="1" width="20" height="20" relative="1" as="geometry">
            <mxPoint x="-24" y="4" as="offset" />
          </mxGeometry>
        </mxCell>
        <mxCell id="Dbsa_Fb1JdHvtEZcZaYi-16" value="" style="edgeStyle=orthogonalEdgeStyle;rounded=0;orthogonalLoop=1;jettySize=auto;html=1;dashed=1;endArrow=open;endFill=0;" parent="1" source="Dbsa_Fb1JdHvtEZcZaYi-15" target="Dbsa_Fb1JdHvtEZcZaYi-1" edge="1">
          <mxGeometry relative="1" as="geometry">
            <Array as="points">
              <mxPoint x="585" y="140" />
              <mxPoint x="319" y="140" />
            </Array>
          </mxGeometry>
        </mxCell>
        <mxCell id="Dbsa_Fb1JdHvtEZcZaYi-15" value="USERS" style="shape=umlActor;verticalLabelPosition=bottom;verticalAlign=top;html=1;" parent="1" vertex="1">
          <mxGeometry x="570" y="40" width="30" height="60" as="geometry" />
        </mxCell>
        <mxCell id="Dbsa_Fb1JdHvtEZcZaYi-27" style="edgeStyle=orthogonalEdgeStyle;rounded=0;orthogonalLoop=1;jettySize=auto;html=1;exitX=1;exitY=0.5;exitDx=0;exitDy=0;exitPerimeter=0;entryX=0.5;entryY=1;entryDx=0;entryDy=0;endArrow=none;endFill=0;" parent="1" source="Dbsa_Fb1JdHvtEZcZaYi-25" target="Dbsa_Fb1JdHvtEZcZaYi-1" edge="1">
          <mxGeometry relative="1" as="geometry" />
        </mxCell>
        <mxCell id="Dbsa_Fb1JdHvtEZcZaYi-25" value="" style="shape=providedRequiredInterface;html=1;verticalLabelPosition=bottom;sketch=0;rotation=-90;" parent="1" vertex="1">
          <mxGeometry x="304" y="320" width="30" height="30" as="geometry" />
        </mxCell>
        <mxCell id="G4uTPBN9B1bp6mXsDa_s-4" style="edgeStyle=orthogonalEdgeStyle;rounded=0;orthogonalLoop=1;jettySize=auto;html=1;exitX=0.5;exitY=0;exitDx=0;exitDy=0;entryX=0;entryY=0.5;entryDx=0;entryDy=0;entryPerimeter=0;endArrow=none;endFill=0;" parent="1" source="G4uTPBN9B1bp6mXsDa_s-1" target="Dbsa_Fb1JdHvtEZcZaYi-25" edge="1">
          <mxGeometry relative="1" as="geometry" />
        </mxCell>
        <mxCell id="G4uTPBN9B1bp6mXsDa_s-1" value="" style="rounded=0;whiteSpace=wrap;html=1;" parent="1" vertex="1">
          <mxGeometry x="309" y="390" width="20" height="20" as="geometry" />
        </mxCell>
        <mxCell id="G4uTPBN9B1bp6mXsDa_s-7" value="" style="rounded=0;whiteSpace=wrap;html=1;" parent="1" vertex="1">
          <mxGeometry x="710" y="725" width="20" height="20" as="geometry" />
        </mxCell>
        <mxCell id="G4uTPBN9B1bp6mXsDa_s-8" value="" style="edgeStyle=orthogonalEdgeStyle;rounded=0;orthogonalLoop=1;jettySize=auto;html=1;exitX=1;exitY=0.5;exitDx=0;exitDy=0;entryX=0;entryY=0.5;entryDx=0;entryDy=0;endArrow=none;endFill=0;" parent="1" source="Dbsa_Fb1JdHvtEZcZaYi-9" target="G4uTPBN9B1bp6mXsDa_s-7" edge="1">
          <mxGeometry relative="1" as="geometry">
            <mxPoint x="700" y="735" as="sourcePoint" />
            <mxPoint x="960" y="755" as="targetPoint" />
          </mxGeometry>
        </mxCell>
        <mxCell id="G4uTPBN9B1bp6mXsDa_s-9" value="" style="rounded=0;whiteSpace=wrap;html=1;" parent="1" vertex="1">
          <mxGeometry x="710" y="750" width="20" height="20" as="geometry" />
        </mxCell>
        <mxCell id="TA7NmAq-p_a1P2Is9fuW-4" style="edgeStyle=orthogonalEdgeStyle;rounded=0;orthogonalLoop=1;jettySize=auto;html=1;exitX=1;exitY=0.5;exitDx=0;exitDy=0;exitPerimeter=0;entryX=1;entryY=0.75;entryDx=0;entryDy=0;endArrow=none;endFill=0;" parent="1" source="TA7NmAq-p_a1P2Is9fuW-1" target="G4uTPBN9B1bp6mXsDa_s-7" edge="1">
          <mxGeometry relative="1" as="geometry" />
        </mxCell>
        <mxCell id="TA7NmAq-p_a1P2Is9fuW-1" value="" style="shape=providedRequiredInterface;html=1;verticalLabelPosition=bottom;sketch=0;rotation=-180;" parent="1" vertex="1">
          <mxGeometry x="840" y="700" width="30" height="30" as="geometry" />
        </mxCell>
        <mxCell id="TA7NmAq-p_a1P2Is9fuW-6" style="edgeStyle=orthogonalEdgeStyle;rounded=0;orthogonalLoop=1;jettySize=auto;html=1;exitX=0;exitY=0.5;exitDx=0;exitDy=0;exitPerimeter=0;entryX=0;entryY=0.5;entryDx=0;entryDy=0;endArrow=none;endFill=0;" parent="1" source="TA7NmAq-p_a1P2Is9fuW-5" target="Dbsa_Fb1JdHvtEZcZaYi-13" edge="1">
          <mxGeometry relative="1" as="geometry" />
        </mxCell>
        <mxCell id="TA7NmAq-p_a1P2Is9fuW-5" value="" style="shape=providedRequiredInterface;html=1;verticalLabelPosition=bottom;sketch=0;rotation=-180;" parent="1" vertex="1">
          <mxGeometry x="840" y="910" width="30" height="30" as="geometry" />
        </mxCell>
        <mxCell id="TA7NmAq-p_a1P2Is9fuW-12" style="edgeStyle=orthogonalEdgeStyle;rounded=0;orthogonalLoop=1;jettySize=auto;html=1;exitX=1;exitY=0.5;exitDx=0;exitDy=0;exitPerimeter=0;endArrow=none;endFill=0;entryX=0.617;entryY=0.022;entryDx=0;entryDy=0;entryPerimeter=0;" parent="1" source="TA7NmAq-p_a1P2Is9fuW-7" target="Dbsa_Fb1JdHvtEZcZaYi-7" edge="1">
          <mxGeometry relative="1" as="geometry" />
        </mxCell>
        <mxCell id="TA7NmAq-p_a1P2Is9fuW-7" value="" style="shape=providedRequiredInterface;html=1;verticalLabelPosition=bottom;sketch=0;rotation=-180;" parent="1" vertex="1">
          <mxGeometry x="444.5" y="585" width="30" height="30" as="geometry" />
        </mxCell>
        <mxCell id="7b9g7WU66VAUXIMc8pyj-1" value="conversation handler" style="text;html=1;resizable=0;autosize=1;align=center;verticalAlign=middle;points=[];fillColor=none;strokeColor=none;rounded=0;" vertex="1" parent="1">
          <mxGeometry x="334" y="325" width="130" height="20" as="geometry" />
        </mxCell>
        <mxCell id="7b9g7WU66VAUXIMc8pyj-2" value="Ideas" style="text;html=1;resizable=0;autosize=1;align=center;verticalAlign=middle;points=[];fillColor=none;strokeColor=none;rounded=0;" vertex="1" parent="1">
          <mxGeometry x="835" y="680" width="40" height="20" as="geometry" />
        </mxCell>
        <mxCell id="7b9g7WU66VAUXIMc8pyj-3" value="Information" style="text;html=1;resizable=0;autosize=1;align=center;verticalAlign=middle;points=[];fillColor=none;strokeColor=none;rounded=0;" vertex="1" parent="1">
          <mxGeometry x="815" y="890" width="80" height="20" as="geometry" />
        </mxCell>
      </root>
    </mxGraphModel>
  </diagram>
  <diagram id="-XGqiR2ObK2PYCEljxkH" name="5.3b">
    <mxGraphModel dx="1935" dy="553" grid="1" gridSize="10" guides="1" tooltips="1" connect="1" arrows="1" fold="1" page="1" pageScale="1" pageWidth="827" pageHeight="1169" math="0" shadow="0">
      <root>
        <mxCell id="0" />
        <mxCell id="1" parent="0" />
        <mxCell id="UImWm64-gxqFOL0FtS2d-12" style="edgeStyle=orthogonalEdgeStyle;rounded=0;orthogonalLoop=1;jettySize=auto;html=1;exitX=0;exitY=0;exitDx=92.5;exitDy=250;exitPerimeter=0;entryX=0;entryY=0;entryDx=82.5;entryDy=0;entryPerimeter=0;endArrow=none;endFill=0;" parent="1" source="UImWm64-gxqFOL0FtS2d-9" target="2-B5pApYeKJMsd5JqXsp-3" edge="1">
          <mxGeometry relative="1" as="geometry" />
        </mxCell>
        <mxCell id="UImWm64-gxqFOL0FtS2d-13" style="edgeStyle=orthogonalEdgeStyle;rounded=0;orthogonalLoop=1;jettySize=auto;html=1;exitX=0;exitY=0;exitDx=92.5;exitDy=250;exitPerimeter=0;entryX=0.424;entryY=-0.012;entryDx=0;entryDy=0;entryPerimeter=0;endArrow=none;endFill=0;" parent="1" source="UImWm64-gxqFOL0FtS2d-9" target="2-B5pApYeKJMsd5JqXsp-4" edge="1">
          <mxGeometry relative="1" as="geometry" />
        </mxCell>
        <mxCell id="UImWm64-gxqFOL0FtS2d-9" value="Chat Bot Server" style="verticalAlign=top;align=left;spacingTop=8;spacingLeft=2;spacingRight=12;shape=cube;size=10;direction=south;fontStyle=4;html=1;" parent="1" vertex="1">
          <mxGeometry x="30" y="540" width="250" height="175" as="geometry" />
        </mxCell>
        <mxCell id="DEN-f3c3rWSbm3i0iK1I-4" style="edgeStyle=orthogonalEdgeStyle;rounded=0;orthogonalLoop=1;jettySize=auto;html=1;exitX=0;exitY=0;exitDx=92.5;exitDy=250;exitPerimeter=0;entryX=1;entryY=0.5;entryDx=0;entryDy=0;endArrow=none;endFill=0;" parent="1" source="UImWm64-gxqFOL0FtS2d-10" target="DEN-f3c3rWSbm3i0iK1I-3" edge="1">
          <mxGeometry relative="1" as="geometry" />
        </mxCell>
        <mxCell id="UImWm64-gxqFOL0FtS2d-10" value="Chat Bot Server" style="verticalAlign=top;align=left;spacingTop=8;spacingLeft=2;spacingRight=12;shape=cube;size=10;direction=south;fontStyle=4;html=1;" parent="1" vertex="1">
          <mxGeometry x="30" y="750" width="250" height="175" as="geometry" />
        </mxCell>
        <mxCell id="UImWm64-gxqFOL0FtS2d-8" value="Chat Bot Server" style="verticalAlign=top;align=left;spacingTop=8;spacingLeft=2;spacingRight=12;shape=cube;size=10;direction=south;fontStyle=4;html=1;" parent="1" vertex="1">
          <mxGeometry x="30" y="335" width="250" height="175" as="geometry" />
        </mxCell>
        <mxCell id="Tikorw7CTpP9X99HAVoG-1" value="AS-EX 5.3b&lt;br&gt;Grupo 601 (DF, DC, ST, FC)&lt;br&gt;v2022/04/06" style="shape=note2;boundedLbl=1;whiteSpace=wrap;html=1;size=11;verticalAlign=top;align=left;fontSize=9;fillColor=#dae8fc;strokeColor=#6c8ebf;" parent="1" vertex="1">
          <mxGeometry x="40" y="40" width="125" height="50" as="geometry" />
        </mxCell>
        <mxCell id="2-B5pApYeKJMsd5JqXsp-1" value="Chat Bot Server" style="verticalAlign=top;align=left;spacingTop=8;spacingLeft=2;spacingRight=12;shape=cube;size=10;direction=south;fontStyle=4;html=1;" parent="1" vertex="1">
          <mxGeometry x="30" y="160" width="250" height="160" as="geometry" />
        </mxCell>
        <mxCell id="UImWm64-gxqFOL0FtS2d-11" style="edgeStyle=orthogonalEdgeStyle;rounded=0;orthogonalLoop=1;jettySize=auto;html=1;exitX=0;exitY=0;exitDx=100;exitDy=240;exitPerimeter=0;endArrow=none;endFill=0;entryX=0.525;entryY=0.004;entryDx=0;entryDy=0;entryPerimeter=0;" parent="1" source="2-B5pApYeKJMsd5JqXsp-2" target="2-B5pApYeKJMsd5JqXsp-1" edge="1">
          <mxGeometry relative="1" as="geometry">
            <mxPoint x="290" y="250" as="targetPoint" />
          </mxGeometry>
        </mxCell>
        <mxCell id="2-B5pApYeKJMsd5JqXsp-2" value="Browser" style="verticalAlign=top;align=left;spacingTop=8;spacingLeft=2;spacingRight=12;shape=cube;size=10;direction=south;fontStyle=4;html=1;" parent="1" vertex="1">
          <mxGeometry x="560" y="315" width="240" height="190" as="geometry" />
        </mxCell>
        <mxCell id="2-B5pApYeKJMsd5JqXsp-3" value="Dedicated Server" style="verticalAlign=top;align=left;spacingTop=8;spacingLeft=2;spacingRight=12;shape=cube;size=10;direction=south;fontStyle=4;html=1;" parent="1" vertex="1">
          <mxGeometry x="-470" y="210" width="250" height="175" as="geometry" />
        </mxCell>
        <mxCell id="2-B5pApYeKJMsd5JqXsp-4" value="External Infrastructure" style="verticalAlign=top;align=left;spacingTop=8;spacingLeft=2;spacingRight=12;shape=cube;size=10;direction=south;fontStyle=4;html=1;" parent="1" vertex="1">
          <mxGeometry x="-470" y="450" width="250" height="170" as="geometry" />
        </mxCell>
        <mxCell id="UImWm64-gxqFOL0FtS2d-14" value="HTTP" style="text;html=1;strokeColor=none;fillColor=none;align=center;verticalAlign=middle;whiteSpace=wrap;rounded=0;" parent="1" vertex="1">
          <mxGeometry x="-76" y="607" width="60" height="30" as="geometry" />
        </mxCell>
        <mxCell id="DEN-f3c3rWSbm3i0iK1I-1" value="Cloud" style="verticalAlign=top;align=left;spacingTop=8;spacingLeft=2;spacingRight=12;shape=cube;size=10;direction=south;fontStyle=4;html=1;" parent="1" vertex="1">
          <mxGeometry x="-475" y="757" width="250" height="170" as="geometry" />
        </mxCell>
        <mxCell id="DEN-f3c3rWSbm3i0iK1I-6" style="edgeStyle=orthogonalEdgeStyle;rounded=0;orthogonalLoop=1;jettySize=auto;html=1;exitX=0;exitY=0.5;exitDx=0;exitDy=0;endArrow=none;endFill=0;" parent="1" source="DEN-f3c3rWSbm3i0iK1I-3" target="DEN-f3c3rWSbm3i0iK1I-1" edge="1">
          <mxGeometry relative="1" as="geometry" />
        </mxCell>
        <mxCell id="DEN-f3c3rWSbm3i0iK1I-3" value="" style="ellipse;whiteSpace=wrap;html=1;aspect=fixed;" parent="1" vertex="1">
          <mxGeometry x="-110" y="827.5" width="30" height="30" as="geometry" />
        </mxCell>
        <mxCell id="DEN-f3c3rWSbm3i0iK1I-7" value="Rest API" style="text;html=1;strokeColor=none;fillColor=none;align=center;verticalAlign=middle;whiteSpace=wrap;rounded=0;" parent="1" vertex="1">
          <mxGeometry x="-125" y="860" width="60" height="30" as="geometry" />
        </mxCell>
        <mxCell id="DEN-f3c3rWSbm3i0iK1I-8" value="HTTP" style="text;html=1;strokeColor=none;fillColor=none;align=center;verticalAlign=middle;whiteSpace=wrap;rounded=0;" parent="1" vertex="1">
          <mxGeometry x="-60" y="820" width="60" height="30" as="geometry" />
        </mxCell>
        <mxCell id="DEN-f3c3rWSbm3i0iK1I-10" value="&lt;p style=&quot;margin: 0px ; margin-top: 6px ; text-align: center&quot;&gt;&lt;b&gt;&amp;lt;&amp;lt;Framework IA&amp;gt;&amp;gt;&lt;/b&gt;&lt;/p&gt;&lt;hr&gt;&lt;p style=&quot;margin: 0px ; margin-left: 8px&quot;&gt;- Text Recognition&lt;br&gt;- Concept Catgorization&lt;/p&gt;&lt;p style=&quot;margin: 0px ; margin-left: 8px&quot;&gt;- etc...&lt;/p&gt;" style="align=left;overflow=fill;html=1;dropTarget=0;" parent="1" vertex="1">
          <mxGeometry x="-450" y="810" width="180" height="90" as="geometry" />
        </mxCell>
        <mxCell id="DEN-f3c3rWSbm3i0iK1I-11" value="" style="shape=component;jettyWidth=8;jettyHeight=4;" parent="DEN-f3c3rWSbm3i0iK1I-10" vertex="1">
          <mxGeometry x="1" width="20" height="20" relative="1" as="geometry">
            <mxPoint x="-24" y="4" as="offset" />
          </mxGeometry>
        </mxCell>
        <mxCell id="cI_sLQoo-7HYJRoBpQFy-1" value="&lt;div style=&quot;text-align: center&quot;&gt;&lt;b&gt;&amp;lt;&amp;lt;Component&amp;gt;&amp;gt;&lt;/b&gt;&lt;br&gt;&lt;/div&gt;&lt;hr style=&quot;text-align: center&quot;&gt;&lt;span style=&quot;text-align: center&quot;&gt;&amp;nbsp; &amp;nbsp;Conversation Manager&lt;/span&gt;&lt;p style=&quot;margin: 0px ; margin-left: 8px&quot;&gt;&lt;br&gt;&lt;/p&gt;" style="align=left;overflow=fill;html=1;dropTarget=0;" parent="1" vertex="1">
          <mxGeometry x="65" y="210" width="180" height="90" as="geometry" />
        </mxCell>
        <mxCell id="cI_sLQoo-7HYJRoBpQFy-2" value="" style="shape=component;jettyWidth=8;jettyHeight=4;" parent="cI_sLQoo-7HYJRoBpQFy-1" vertex="1">
          <mxGeometry x="1" width="20" height="20" relative="1" as="geometry">
            <mxPoint x="-24" y="4" as="offset" />
          </mxGeometry>
        </mxCell>
        <mxCell id="Z4in0GHg7oXhloroy3wz-1" value="&lt;div style=&quot;text-align: center&quot;&gt;&lt;b&gt;&amp;lt;&amp;lt;Component&amp;gt;&amp;gt;&lt;/b&gt;&lt;/div&gt;&lt;hr style=&quot;text-align: center&quot;&gt;&lt;p style=&quot;margin: 6px 0px 0px&quot;&gt;&amp;nbsp; &amp;nbsp;External Knowledge&amp;nbsp;&lt;span&gt;Base&amp;nbsp;&lt;/span&gt;&lt;/p&gt;" style="align=left;overflow=fill;html=1;dropTarget=0;" parent="1" vertex="1">
          <mxGeometry x="-450" y="500" width="180" height="90" as="geometry" />
        </mxCell>
        <mxCell id="Z4in0GHg7oXhloroy3wz-2" value="" style="shape=component;jettyWidth=8;jettyHeight=4;" parent="Z4in0GHg7oXhloroy3wz-1" vertex="1">
          <mxGeometry x="1" width="20" height="20" relative="1" as="geometry">
            <mxPoint x="-24" y="4" as="offset" />
          </mxGeometry>
        </mxCell>
        <mxCell id="o74S4hUCyuhhENnILVxm-1" value="&lt;div style=&quot;text-align: center&quot;&gt;&lt;b&gt;&amp;lt;&amp;lt;Component&amp;gt;&amp;gt;&lt;/b&gt;&lt;/div&gt;&lt;hr style=&quot;text-align: center&quot;&gt;&lt;p style=&quot;margin: 0px ; margin-left: 8px&quot;&gt;&lt;span style=&quot;text-align: center&quot;&gt;Idea DB&amp;nbsp;&lt;/span&gt;&lt;br&gt;&lt;br&gt;&lt;/p&gt;" style="align=left;overflow=fill;html=1;dropTarget=0;" parent="1" vertex="1">
          <mxGeometry x="-450" y="260" width="180" height="90" as="geometry" />
        </mxCell>
        <mxCell id="o74S4hUCyuhhENnILVxm-2" value="" style="shape=component;jettyWidth=8;jettyHeight=4;" parent="o74S4hUCyuhhENnILVxm-1" vertex="1">
          <mxGeometry x="1" width="20" height="20" relative="1" as="geometry">
            <mxPoint x="-24" y="4" as="offset" />
          </mxGeometry>
        </mxCell>
        <mxCell id="zoBFXpf1NCnIiDXVIY5_-1" value="&lt;div style=&quot;text-align: center&quot;&gt;&lt;b&gt;&amp;lt;&amp;lt;Component&amp;gt;&amp;gt;&lt;/b&gt;&lt;/div&gt;&lt;hr style=&quot;text-align: center&quot;&gt;&lt;span style=&quot;text-align: center&quot;&gt;&amp;nbsp; &amp;nbsp;Action Server&lt;/span&gt;&lt;p style=&quot;margin: 0px ; margin-left: 8px&quot;&gt;&lt;br&gt;&lt;/p&gt;" style="align=left;overflow=fill;html=1;dropTarget=0;" parent="1" vertex="1">
          <mxGeometry x="50" y="590" width="180" height="90" as="geometry" />
        </mxCell>
        <mxCell id="zoBFXpf1NCnIiDXVIY5_-2" value="" style="shape=component;jettyWidth=8;jettyHeight=4;" parent="zoBFXpf1NCnIiDXVIY5_-1" vertex="1">
          <mxGeometry x="1" width="20" height="20" relative="1" as="geometry">
            <mxPoint x="-24" y="4" as="offset" />
          </mxGeometry>
        </mxCell>
        <mxCell id="jZLIv4KObHeV83on1Xh6-1" value="&lt;div style=&quot;text-align: center&quot;&gt;&lt;b&gt;&amp;lt;&amp;lt;Component&amp;gt;&amp;gt;&lt;/b&gt;&lt;/div&gt;&lt;hr style=&quot;text-align: center&quot;&gt;&lt;p style=&quot;margin: 0px ; margin-left: 8px&quot;&gt;&lt;span style=&quot;text-align: center&quot;&gt;Dialog Engine&lt;/span&gt;&lt;br&gt;&lt;br&gt;&lt;/p&gt;" style="align=left;overflow=fill;html=1;dropTarget=0;" parent="1" vertex="1">
          <mxGeometry x="50" y="385" width="180" height="90" as="geometry" />
        </mxCell>
        <mxCell id="jZLIv4KObHeV83on1Xh6-2" value="" style="shape=component;jettyWidth=8;jettyHeight=4;" parent="jZLIv4KObHeV83on1Xh6-1" vertex="1">
          <mxGeometry x="1" width="20" height="20" relative="1" as="geometry">
            <mxPoint x="-24" y="4" as="offset" />
          </mxGeometry>
        </mxCell>
        <mxCell id="OeqUjqFUotReTsyLe10A-1" value="&lt;div style=&quot;text-align: center&quot;&gt;&lt;b&gt;&amp;lt;&amp;lt;Component&amp;gt;&amp;gt;&lt;/b&gt;&lt;/div&gt;&lt;hr style=&quot;text-align: center&quot;&gt;&lt;p style=&quot;margin: 0px ; margin-left: 8px&quot;&gt;&lt;span style=&quot;text-align: center&quot;&gt;NLU Module&lt;/span&gt;&lt;br&gt;&lt;br&gt;&lt;/p&gt;" style="align=left;overflow=fill;html=1;dropTarget=0;" parent="1" vertex="1">
          <mxGeometry x="50" y="800" width="180" height="90" as="geometry" />
        </mxCell>
        <mxCell id="OeqUjqFUotReTsyLe10A-2" value="" style="shape=component;jettyWidth=8;jettyHeight=4;" parent="OeqUjqFUotReTsyLe10A-1" vertex="1">
          <mxGeometry x="1" width="20" height="20" relative="1" as="geometry">
            <mxPoint x="-24" y="4" as="offset" />
          </mxGeometry>
        </mxCell>
        <mxCell id="p5oCcQlTRvdgV1EG5UrS-1" value="&lt;p style=&quot;margin: 0px ; margin-top: 6px ; text-align: center&quot;&gt;&lt;b&gt;&amp;lt;&amp;lt;Component&amp;gt;&amp;gt;&lt;/b&gt;&lt;/p&gt;&lt;hr&gt;&lt;span&gt;&lt;div&gt;&lt;span&gt;&amp;nbsp; &amp;nbsp;Front End Client&amp;nbsp;&lt;/span&gt;&lt;/div&gt;&lt;/span&gt;" style="align=left;overflow=fill;html=1;dropTarget=0;" parent="1" vertex="1">
          <mxGeometry x="590" y="385" width="180" height="90" as="geometry" />
        </mxCell>
        <mxCell id="p5oCcQlTRvdgV1EG5UrS-2" value="" style="shape=component;jettyWidth=8;jettyHeight=4;" parent="p5oCcQlTRvdgV1EG5UrS-1" vertex="1">
          <mxGeometry x="1" width="20" height="20" relative="1" as="geometry">
            <mxPoint x="-24" y="4" as="offset" />
          </mxGeometry>
        </mxCell>
      </root>
    </mxGraphModel>
  </diagram>
</mxfile>
